<?xml version="1.0" encoding="UTF-8"?>
<svg width="220px" height="42px" viewBox="0 0 220 42" version="1.1" xmlns="http://www.w3.org/2000/svg" xmlns:xlink="http://www.w3.org/1999/xlink">
    <!-- Generator: Sketch 48.1 (47250) - http://www.bohemiancoding.com/sketch -->
    <title>logo</title>
    <desc>Created with Sketch.</desc>
    <defs></defs>
    <g id="Global-elements/desktop-header/blue" stroke="none" stroke-width="1" fill="none" fill-rule="evenodd" transform="translate(-57.000000, -40.000000)">
        <g id="logo" transform="translate(57.000000, 40.000000)" fill="#003CD1">
            <path d="M35.6067339,20.6893145 C35.59875,18.5416532 35.1818145,16.5838306 34.4570565,14.845121 C34.2938306,14.45125 33.7757661,14.3581048 33.4785887,14.6641532 L32.1958468,15.9885887 C31.9474597,16.2458468 31.8552016,16.6175403 31.9634274,16.9590726 C32.3182661,18.0892339 32.5205242,19.3418145 32.5231855,20.7194758 C32.509879,26.9983468 28.3671371,30.6310081 24.3219758,31.9217339 C21.5347177,32.8114919 18.9080242,32.9605242 16.0480242,32.3271371 C13.7327016,31.8152823 11.3916532,30.5600403 9.54116935,28.9650403 C9.18100806,28.6545565 8.65229839,29.08125 8.89891129,29.4893145 C11.1627823,33.2364113 15.780121,35.6768145 20.9678629,35.6768145 C27.9936694,35.6768145 35.5739113,29.970121 35.6067339,20.74875 L35.6085081,20.74875 C35.6085081,20.739879 35.607621,20.730121 35.607621,20.7203629 C35.607621,20.7097177 35.6085081,20.6999597 35.6085081,20.6893145 L35.6067339,20.6893145 Z" id="Fill-1"></path>
            <path d="M34.8097661,32.5914919 C34.54275,32.3156048 34.0965403,32.3147177 33.8357339,32.5959274 C33.1118629,33.3774597 32.3258952,34.0880242 31.49025,34.71875 C29.7887984,36.0316532 27.8398468,37.0163306 25.7640403,37.6319758 C25.6682339,37.6603629 25.5733145,37.68875 25.476621,37.7153629 C25.3754919,37.7446371 25.2734758,37.77125 25.1705726,37.7978629 C23.7379113,38.1766532 22.27775,38.3753629 20.8362177,38.3709274 L20.8362177,38.3682661 C20.79275,38.3682661 20.7492823,38.3709274 20.7075887,38.3709274 C15.9873468,38.3709274 11.5642823,36.5266532 8.25275,33.1760887 C5.03968548,29.9284274 3.22468548,25.6056048 3.09694355,20.9572177 C3.15815323,20.7780242 3.10049194,20.2164919 3.10758871,20.0647984 C3.12799194,19.6585081 3.16081452,19.2531048 3.20694355,18.8485887 C3.57420161,15.6577016 4.78154032,12.5821371 6.72694355,10.0210887 C7.90855645,8.46423387 9.34565323,7.10342742 10.9681532,6.01407258 C15.8640403,2.56326613 22.6130726,2.20487903 28.0146048,4.63818548 C29.1731532,5.16068548 30.2749274,5.80737903 31.2915403,6.56850806 C31.7324274,6.89850806 31.7794435,7.54342742 31.3962177,7.93818548 C29.8340403,9.55181452 27.1621048,12.3124597 26.1499274,13.3574597 C25.9139597,13.6022984 25.5449274,13.6599597 25.2442016,13.5002823 C24.9221855,13.3290726 24.50525,13.1170565 24.1850081,12.9893145 C23.5746855,12.7453629 22.9457339,12.5466532 22.3008145,12.4144758 C21.1218629,12.1731855 19.8400081,12.0995565 18.656621,12.3550403 C16.7537984,12.7639919 14.8784758,14.1443145 14.1847661,16.0036694 C14.0543629,16.3558468 14.4606532,16.6654435 14.7720242,16.4560887 C17.3490403,14.7280242 20.8521855,14.5940726 23.5906532,16.0728629 C24.0945242,16.3452016 24.6773468,16.7745565 25.146621,17.1471371 C25.6584758,17.5534274 26.393879,17.50375 26.8489597,17.0353629 L35.4378306,8.19455645 C36.0029113,7.61350806 35.9993629,6.68649194 35.4289597,6.10987903 C35.1672661,5.84552419 34.9233145,5.60245968 34.7929113,5.48004032 C33.5536371,4.32504032 32.1653306,3.33060484 30.6767823,2.52068548 C24.6649274,-0.751814516 17.1937984,-0.861814516 11.1269435,2.32995968 C5.07250806,5.51552419 0.951056452,11.6444758 0.151782258,18.4210081 C0.0728306452,19.0889919 0.0258145161,19.7605242 0.00895967742,20.4329435 L8.87096774e-05,20.4329435 C8.87096774e-05,20.5056855 0.00452419355,20.5775403 0.00541129032,20.6502823 C0.00363709677,20.7682661 8.87096774e-05,20.8871371 8.87096774e-05,21.0060081 L0.0133951613,21.0060081 C0.154443548,26.4536694 2.2843629,31.5269758 6.05895968,35.3450403 C9.95420161,39.2855242 15.1570242,41.4553629 20.7075887,41.4553629 C26.23775,41.4553629 31.5940403,39.2358468 35.4014597,35.3654435 L35.9275081,34.8305242 C36.2220242,34.5315726 36.2237984,34.0516532 35.9319435,33.7500403 L34.8097661,32.5914919 Z" id="Fill-3"></path>
            <path d="M17.5200726,9.60282258 C18.6165242,9.30120968 19.7582177,9.15927419 20.8954758,9.16282258 C21.6087016,9.16548387 22.3130565,9.28169355 23.0174113,9.39612903 C23.5718468,9.48483871 24.4349919,9.78822581 24.9104758,9.96653226 C25.1216048,10.0454839 25.3584597,9.99225806 25.51725,9.83080645 C25.8738629,9.46532258 26.525879,8.79822581 27.0120081,8.30145161 C27.2878952,8.02024194 27.1974113,7.54919355 26.83725,7.38951613 C21.1926532,4.88790323 13.8377339,6.01096774 9.93628226,11.0514516 C6.32579839,15.7166935 7.00442742,22.7753226 11.2944274,26.785 C13.8599113,29.1810484 17.3320081,30.0956452 20.7766048,29.6325806 C22.9304758,29.3540323 25.0364435,28.5396774 26.7245887,27.161129 C27.0466048,26.8985484 27.3295887,26.6492742 27.5531371,26.4443548 C27.8618468,26.161371 27.8778145,25.6814516 27.588621,25.3780645 L26.4194274,24.1556452 C26.1648306,23.888629 25.7381371,23.8770968 25.4764435,24.1379032 C25.3265242,24.2887097 25.1366855,24.4616935 24.8989435,24.6506452 C24.2939435,25.1341129 23.6410403,25.5244355 22.9145081,25.8198387 C20.8653145,26.6519355 18.4595081,26.9748387 16.3393468,26.2651613 C12.573621,25.006371 10.3904758,21.0579032 10.7373306,17.1928226 C11.0753145,13.4084677 13.9530565,10.5821774 17.5200726,9.60282258" id="Fill-5"></path>
            <path d="M106.711355,13.706 C106.861274,13.706 106.99079,13.761 107.099903,13.8701129 C107.209016,13.9792258 107.264016,14.1087419 107.264016,14.2586613 L107.264016,27.4657581 C107.264016,27.6156774 107.209016,27.7451935 107.099903,27.8534194 C106.99079,27.9625323 106.861274,28.0166452 106.711355,28.0166452 L105.056032,28.0166452 C104.906113,28.0166452 104.77571,27.9625323 104.666597,27.8534194 C104.557484,27.7451935 104.504258,27.6156774 104.504258,27.4657581 L104.504258,22.0677742 L98.3291774,22.0677742 L98.3291774,27.4657581 C98.3291774,27.6156774 98.2741774,27.7451935 98.1659516,27.8534194 C98.0559516,27.9625323 97.9273226,28.0166452 97.7782903,28.0166452 L96.1211935,28.0166452 C95.9712742,28.0166452 95.8417581,27.9660806 95.7326452,27.8631774 C95.6235323,27.7620484 95.5685323,27.6289839 95.5685323,27.4657581 L95.5685323,14.2586613 C95.5685323,14.1087419 95.6235323,13.9792258 95.7326452,13.8701129 C95.8417581,13.761 95.9712742,13.706 96.1211935,13.706 L97.7782903,13.706 C97.9273226,13.706 98.0559516,13.761 98.1659516,13.8701129 C98.2741774,13.9792258 98.3291774,14.1087419 98.3291774,14.2586613 L98.3291774,19.5120484 L104.504258,19.5120484 L104.504258,14.2586613 C104.504258,14.1087419 104.557484,13.9792258 104.666597,13.8701129 C104.77571,13.761 104.906113,13.706 105.056032,13.706 L106.711355,13.706 Z" id="Fill-7"></path>
            <path d="M119.530968,22.681379 L117.28129,16.8549274 L115.0325,22.681379 L119.530968,22.681379 Z M118.405242,13.7057339 C118.624355,13.7057339 118.787581,13.7642823 118.896694,13.8796048 C119.005806,13.9958145 119.101613,14.1696855 119.182339,14.4012177 L124.191774,27.3217823 C124.205968,27.3634758 124.212177,27.411379 124.212177,27.4654919 C124.212177,27.6154113 124.158065,27.7449274 124.048952,27.8540403 C123.939839,27.9631532 123.809435,28.0172661 123.659516,28.0172661 L122.18871,28.0172661 C121.915484,28.0172661 121.724758,27.9596048 121.616532,27.8433952 C121.507419,27.7280726 121.432903,27.6154113 121.39121,27.5062984 L120.51121,25.2362177 L114.051371,25.2362177 L113.172258,27.5062984 C113.131452,27.6154113 113.056048,27.7280726 112.946935,27.8433952 C112.837823,27.9596048 112.647097,28.0172661 112.375645,28.0172661 L110.902177,28.0172661 C110.752258,28.0172661 110.623629,27.9631532 110.514516,27.8540403 C110.405403,27.7449274 110.350403,27.6154113 110.350403,27.4654919 C110.350403,27.411379 110.3575,27.3634758 110.371694,27.3217823 L115.379355,14.4012177 C115.461855,14.1696855 115.557661,13.9958145 115.666774,13.8796048 C115.775887,13.7642823 115.938226,13.7057339 116.156452,13.7057339 L118.405242,13.7057339 Z" id="Fill-9"></path>
            <path d="M135.374871,13.706 C135.52479,13.706 135.653419,13.761 135.762532,13.8701129 C135.872532,13.9792258 135.925758,14.1087419 135.925758,14.2586613 L135.925758,15.7099516 C135.925758,15.859871 135.872532,15.9893871 135.762532,16.0976129 C135.653419,16.2067258 135.52479,16.2617258 135.374871,16.2617258 L131.695194,16.2617258 L131.695194,27.4657581 C131.695194,27.6156774 131.639306,27.7451935 131.531081,27.8534194 C131.421968,27.9625323 131.291565,28.0166452 131.142532,28.0166452 L129.486323,28.0166452 C129.336403,28.0166452 129.206887,27.9625323 129.097774,27.8534194 C128.988661,27.7451935 128.934548,27.6156774 128.934548,27.4657581 L128.934548,16.2617258 L125.254871,16.2617258 C125.104065,16.2617258 124.974548,16.2067258 124.866323,16.0976129 C124.756323,15.9893871 124.70221,15.859871 124.70221,15.7099516 L124.70221,14.2586613 C124.70221,14.1087419 124.756323,13.9792258 124.866323,13.8701129 C124.974548,13.761 125.104065,13.706 125.254871,13.706 L135.374871,13.706 Z" id="Fill-11"></path>
            <path d="M148.83896,13.706 C148.988879,13.706 149.117508,13.761 149.226621,13.8701129 C149.336621,13.9792258 149.390734,14.1087419 149.390734,14.2586613 L149.390734,15.7099516 C149.390734,15.859871 149.336621,15.9893871 149.226621,16.0976129 C149.117508,16.2067258 148.988879,16.2617258 148.83896,16.2617258 L145.159282,16.2617258 L145.159282,27.4657581 C145.159282,27.6156774 145.103395,27.7451935 144.994282,27.8534194 C144.885169,27.9625323 144.755653,28.0166452 144.606621,28.0166452 L142.949524,28.0166452 C142.799605,28.0166452 142.670976,27.9625323 142.561863,27.8534194 C142.45275,27.7451935 142.398637,27.6156774 142.398637,27.4657581 L142.398637,16.2617258 L138.71896,16.2617258 C138.568153,16.2617258 138.438637,16.2067258 138.329524,16.0976129 C138.220411,15.9893871 138.166298,15.859871 138.166298,15.7099516 L138.166298,14.2586613 C138.166298,14.1087419 138.220411,13.9792258 138.329524,13.8701129 C138.438637,13.761 138.568153,13.706 138.71896,13.706 L148.83896,13.706 Z" id="Fill-13"></path>
            <path d="M162.188702,25.4618065 C162.338621,25.4618065 162.46725,25.5159194 162.576363,25.6250323 C162.686363,25.7341452 162.740476,25.8636613 162.740476,26.0135806 L162.740476,27.4657581 C162.740476,27.6156774 162.686363,27.7451935 162.576363,27.8534194 C162.46725,27.9625323 162.338621,28.0166452 162.188702,28.0166452 L153.213056,28.0166452 C153.063137,28.0166452 152.933621,27.9625323 152.824508,27.8534194 C152.715395,27.7451935 152.661282,27.6156774 152.661282,27.4657581 L152.661282,14.2586613 C152.661282,14.1087419 152.715395,13.9792258 152.824508,13.8701129 C152.933621,13.761 153.063137,13.706 153.213056,13.706 L162.024589,13.706 C162.174508,13.706 162.304024,13.761 162.414024,13.8701129 C162.52225,13.9792258 162.576363,14.1087419 162.576363,14.2586613 L162.576363,15.7099516 C162.576363,15.859871 162.52225,15.9893871 162.414024,16.0976129 C162.304024,16.2067258 162.174508,16.2617258 162.024589,16.2617258 L155.42104,16.2617258 L155.42104,19.5120484 L161.575718,19.5120484 C161.72475,19.5120484 161.854266,19.5661613 161.963379,19.6761613 C162.072492,19.7852742 162.127492,19.9147903 162.127492,20.0647097 L162.127492,21.516 C162.127492,21.6659194 162.072492,21.7954355 161.963379,21.9045484 C161.854266,22.0136613 161.72475,22.0677742 161.575718,22.0677742 L155.42104,22.0677742 L155.42104,25.4618065 L162.188702,25.4618065 Z" id="Fill-15"></path>
            <path d="M169.262145,20.1457016 L172.226823,20.1457016 C173.003919,20.1457016 173.623113,20.0099758 174.087065,19.7376371 C174.550129,19.4644113 174.782548,18.9463468 174.782548,18.1834435 C174.782548,17.4205403 174.550129,16.9095726 174.087065,16.6505403 C173.623113,16.3915081 173.003919,16.2619919 172.226823,16.2619919 L169.262145,16.2619919 L169.262145,20.1457016 Z M172.328839,13.7062661 C174.032952,13.7062661 175.327226,14.1019113 176.214323,14.8923145 C177.098758,15.6827177 177.542306,16.7800565 177.542306,18.1834435 C177.542306,19.1787661 177.313435,20.0268306 176.858355,20.7285242 C176.4015,21.4311048 175.729968,21.9527177 174.843758,22.2924758 L177.665613,27.3427177 C177.706419,27.4243306 177.725935,27.4997339 177.725935,27.5671532 C177.725935,27.6895726 177.681581,27.7960242 177.593758,27.8838468 C177.504161,27.9734435 177.399484,28.0169113 177.276177,28.0169113 L175.538355,28.0169113 C175.266016,28.0169113 175.065532,27.9530403 174.936016,27.8226371 C174.805613,27.693121 174.714242,27.57425 174.660129,27.4651371 L171.981097,22.7014274 L169.262145,22.7014274 L169.262145,27.4651371 C169.262145,27.6150565 169.207145,27.7445726 169.098919,27.8536855 C168.988919,27.9627984 168.86029,28.0169113 168.710371,28.0169113 L167.054161,28.0169113 C166.904242,28.0169113 166.774726,27.9627984 166.665613,27.8536855 C166.5565,27.7445726 166.502387,27.6150565 166.502387,27.4651371 L166.502387,14.2580403 C166.502387,14.108121 166.5565,13.9786048 166.665613,13.870379 C166.774726,13.7612661 166.904242,13.7062661 167.054161,13.7062661 L172.328839,13.7062661 Z" id="Fill-17"></path>
            <path d="M205.40779,25.4618065 C205.55771,25.4618065 205.687226,25.5159194 205.796339,25.6250323 C205.906339,25.7341452 205.959565,25.8636613 205.959565,26.0135806 L205.959565,27.4657581 C205.959565,27.6156774 205.906339,27.7451935 205.796339,27.8534194 C205.687226,27.9625323 205.55771,28.0166452 205.40779,28.0166452 L196.433032,28.0166452 C196.283113,28.0166452 196.15271,27.9625323 196.043597,27.8534194 C195.934484,27.7451935 195.881258,27.6156774 195.881258,27.4657581 L195.881258,14.2586613 C195.881258,14.1087419 195.934484,13.9792258 196.043597,13.8701129 C196.15271,13.761 196.283113,13.706 196.433032,13.706 L205.244565,13.706 C205.394484,13.706 205.523113,13.761 205.633113,13.8701129 C205.741339,13.9792258 205.796339,14.1087419 205.796339,14.2586613 L205.796339,15.7099516 C205.796339,15.859871 205.741339,15.9893871 205.633113,16.0976129 C205.523113,16.2067258 205.394484,16.2617258 205.244565,16.2617258 L198.641016,16.2617258 L198.641016,19.5120484 L204.795694,19.5120484 C204.944726,19.5120484 205.073355,19.5661613 205.182468,19.6761613 C205.291581,19.7852742 205.347468,19.9147903 205.347468,20.0647097 L205.347468,21.516 C205.347468,21.6659194 205.291581,21.7954355 205.182468,21.9045484 C205.073355,22.0136613 204.944726,22.0677742 204.795694,22.0677742 L198.641016,22.0677742 L198.641016,25.4618065 L205.40779,25.4618065 Z" id="Fill-19"></path>
            <path d="M219.247919,25.4618065 C219.397839,25.4618065 219.527355,25.5159194 219.636468,25.6250323 C219.746468,25.7341452 219.799694,25.8636613 219.799694,26.0135806 L219.799694,27.4657581 C219.799694,27.6156774 219.746468,27.7451935 219.636468,27.8534194 C219.527355,27.9625323 219.397839,28.0166452 219.247919,28.0166452 L210.273161,28.0166452 C210.123242,28.0166452 209.992839,27.9625323 209.883726,27.8534194 C209.7755,27.7451935 209.721387,27.6156774 209.721387,27.4657581 L209.721387,14.2586613 C209.721387,14.1087419 209.7755,13.9792258 209.883726,13.8701129 C209.992839,13.761 210.123242,13.706 210.273161,13.706 L219.084694,13.706 C219.234613,13.706 219.364129,13.761 219.473242,13.8701129 C219.581468,13.9792258 219.636468,14.1087419 219.636468,14.2586613 L219.636468,15.7099516 C219.636468,15.859871 219.581468,15.9893871 219.473242,16.0976129 C219.364129,16.2067258 219.234613,16.2617258 219.084694,16.2617258 L212.481145,16.2617258 L212.481145,19.5120484 L218.635823,19.5120484 C218.784855,19.5120484 218.914371,19.5661613 219.022597,19.6761613 C219.13171,19.7852742 219.187597,19.9147903 219.187597,20.0647097 L219.187597,21.516 C219.187597,21.6659194 219.13171,21.7954355 219.022597,21.9045484 C218.914371,22.0136613 218.784855,22.0677742 218.635823,22.0677742 L212.481145,22.0677742 L212.481145,25.4618065 L219.247919,25.4618065 Z" id="Fill-21"></path>
            <path d="M66.8154194,17.8348145 L68.2196935,17.8348145 C68.5674355,17.8348145 68.8548548,17.7682823 69.0837258,17.6352177 C69.3108226,17.5030403 69.424371,17.2635242 69.424371,16.9148952 C69.424371,16.5671532 69.3108226,16.3276371 69.0837258,16.1945726 C68.8548548,16.0615081 68.5674355,15.9958629 68.2196935,15.9958629 L66.8154194,15.9958629 L66.8154194,17.8348145 Z M68.2196935,14.0699758 C68.7661452,14.0699758 69.2549355,14.1276371 69.6851774,14.2438468 C70.1163065,14.3600565 70.4835645,14.5339274 70.7860645,14.7663468 C71.0867903,14.9969919 71.3200968,15.2932823 71.4815484,15.6543306 C71.6421129,16.0144919 71.7237258,16.4349758 71.7237258,16.9148952 C71.7237258,17.53675 71.5950968,18.0521532 71.3387258,18.462879 C71.0823548,18.8718306 70.716871,19.1849758 70.2449355,19.4005403 L71.7858226,22.358121 C71.8106613,22.4077984 71.8230806,22.4539274 71.8230806,22.4947339 C71.8230806,22.5683629 71.7955806,22.6340081 71.7423548,22.6872339 C71.6882419,22.7413468 71.624371,22.7679597 71.5498548,22.7679597 L69.8599355,22.7679597 C69.6940484,22.7679597 69.5760645,22.7307016 69.5050968,22.6561855 C69.4350161,22.5816694 69.379129,22.5071532 69.3383226,22.4326371 L67.958,19.7740081 L66.8154194,19.7740081 L66.8154194,22.4326371 C66.8154194,22.5240081 66.7825968,22.6029597 66.7160645,22.6686048 C66.6495323,22.7351371 66.5714677,22.7679597 66.4800968,22.7679597 L64.8522742,22.7679597 C64.7609032,22.7679597 64.6828387,22.7351371 64.6163065,22.6686048 C64.5488871,22.6029597 64.5160645,22.5240081 64.5160645,22.4326371 L64.5160645,14.4052984 C64.5160645,14.3139274 64.5488871,14.2349758 64.6163065,14.1693306 C64.6828387,14.1027984 64.7609032,14.0699758 64.8522742,14.0699758 L68.2196935,14.0699758 Z" id="Fill-23"></path>
            <path d="M71.8633548,25.3981129 C71.755129,25.289 71.6256129,25.234 71.4756935,25.234 L64.8260161,25.234 C64.6752097,25.234 64.5456935,25.289 64.4374677,25.3981129 C64.3274677,25.5072258 64.2733548,25.6367419 64.2733548,25.7866613 L64.2733548,27.2379516 C64.2733548,27.3887581 64.3274677,27.5173871 64.4374677,27.6265 C64.5456935,27.7356129 64.6752097,27.7906129 64.8260161,27.7906129 L71.4756935,27.7906129 C71.6256129,27.7906129 71.755129,27.7356129 71.8633548,27.6265 C71.9733548,27.5173871 72.0283548,27.387871 72.0283548,27.2379516 L72.0283548,25.7866613 C72.0283548,25.6367419 71.9733548,25.5072258 71.8633548,25.3981129" id="Fill-25"></path>
            <path d="M89.6529274,24.0731452 C88.6442984,24.9815323 87.3180887,25.5226613 85.9661532,25.4073387 C84.8909919,25.3150806 83.9755081,24.8821774 83.1824435,24.0935484 C82.2829274,23.1895968 81.8455887,22.1330645 81.8455887,20.8627419 C81.8455887,19.598629 82.2829274,18.543871 83.1780081,17.6434677 C83.974621,16.8521774 84.8892177,16.4183871 85.9634919,16.326129 C87.3145403,16.2099194 88.64075,16.7501613 89.649379,17.6567742 L89.8489758,17.8368548 C90.0680887,18.0337903 90.4034113,18.0249194 90.6109919,17.8164516 L91.7722016,16.656129 C92.014379,16.4139516 92.0037339,16.0174194 91.7500242,15.7876613 L91.3472823,15.4221774 C89.9483306,14.1562903 88.2867984,13.5149194 86.4097016,13.5149194 C84.3862339,13.5149194 82.6359919,14.2414516 81.2122016,15.6705645 C79.7795403,17.0970161 79.0530081,18.8445968 79.0530081,20.8627419 C79.0530081,22.8870968 79.7795403,24.6364516 81.2086532,26.0593548 C82.6359919,27.4920161 84.3862339,28.2185484 86.4097016,28.2185484 C88.2876855,28.2185484 89.9492177,27.5771774 91.3472823,26.3104032 L91.7491371,25.9458065 C92.0037339,25.7160484 92.0134919,25.3195161 91.7713145,25.0773387 L90.6109919,23.9170161 C90.4034113,23.7085484 90.0680887,23.6996774 89.8489758,23.8966129 L89.6529274,24.0731452 Z" id="Fill-27"></path>
            <path d="M54.3917177,25.2764032 L52.9572823,25.2764032 C52.597121,25.2764032 52.304379,24.9845484 52.304379,24.6243871 L52.304379,16.7753548 C52.304379,16.4151935 52.597121,16.1233387 52.9572823,16.1233387 L54.394379,16.1233387 C55.8190565,16.1233387 57.2313145,16.6644677 58.1645403,17.7414032 C58.8928468,18.5832581 59.2485726,19.5564032 59.2485726,20.7034194 C59.2485726,21.8495484 58.8910726,22.8209194 58.1601048,23.6618871 C57.2251048,24.7370484 55.8155081,25.2764032 54.3917177,25.2764032 M59.8801855,15.8749516 C58.4608306,14.3633387 56.7079274,13.5968871 54.6755887,13.5968871 L50.4299435,13.5968871 C50.0697823,13.5968871 49.7779274,13.8887419 49.7779274,14.2489032 L49.7779274,27.1499516 C49.7779274,27.511 50.0697823,27.8028548 50.4299435,27.8028548 L54.6755887,27.8028548 C56.6201048,27.8028548 58.30825,27.1047097 59.6965565,25.7217258 C61.1487339,24.2642258 61.8459919,22.469629 61.7679274,20.3938226 C61.7058306,18.7172097 61.0263145,17.0982581 59.8801855,15.8749516" id="Fill-29"></path>
            <path d="M185.820694,28.2218306 C184.100613,28.2218306 182.579242,27.6336855 181.298274,26.47425 L180.929242,26.1407016 C180.69771,25.9295726 180.687952,25.56675 180.910613,25.3440887 L181.972468,24.2822339 C182.163194,24.090621 182.471016,24.0826371 182.670613,24.2636048 L182.849806,24.4250565 C183.688113,25.1799758 184.766823,25.658121 185.883677,25.6607823 L185.883677,25.6661048 C186.824,25.6661048 187.546097,25.4212661 188.050855,24.9298145 C188.554726,24.43925 188.806661,23.7233629 188.806661,22.7839274 L188.806661,16.2619919 L182.101984,16.2619919 C181.951177,16.2619919 181.821661,16.2069919 181.712548,16.097879 C181.603435,15.9887661 181.55021,15.8601371 181.55021,15.7102177 L181.55021,14.2580403 C181.55021,14.108121 181.603435,13.9786048 181.712548,13.870379 C181.821661,13.7612661 181.951177,13.7062661 182.101984,13.7062661 L191.014645,13.7062661 C191.164565,13.7062661 191.294081,13.7612661 191.404081,13.870379 C191.512306,13.9786048 191.567306,14.108121 191.567306,14.2580403 L191.567306,22.9054597 C191.567306,24.6645726 191.076742,25.9898952 190.094726,26.8823145 C189.113597,27.775621 187.71021,28.2218306 185.883677,28.2218306 L185.820694,28.2218306 Z" id="Fill-31"></path>
        </g>
    </g>
</svg>