<svg version="1.1" width="40.000000" height="20.000000" viewBox="0.000000 0.000000 40.000000 20.000000" xmlns="http://www.w3.org/2000/svg" xmlns:xlink="http://www.w3.org/1999/xlink" overflow="hidden"><defs></defs><g id="clinic" stroke="none" stroke-width="1.000000" fill="none" fill-rule="evenodd" transform="matrix(1.000000,0.000000,0.000000,1.000000,-700.000000,-806.000000)"><path d=" M 720.000000 826.000000 C 719.804688 826.000000 719.628906 825.921875 719.511719 825.804688 L 700.214844 807.230469 C 700.078125 807.093750 700.000000 806.917969 700.000000 806.703125 C 700.000000 806.312500 700.312500 806.000000 700.722656 806.000000 C 700.898438 806.000000 701.074219 806.078125 701.210938 806.195312 L 720.000000 824.300781 L 738.789062 806.195312 C 738.925781 806.078125 739.101562 806.000000 739.277344 806.000000 C 739.687500 806.000000 740.000000 806.312500 740.000000 806.703125 C 740.000000 806.917969 739.921875 807.093750 739.785156 807.230469 L 720.488281 825.804688 C 720.371094 825.921875 720.195312 826.000000 720.000000 826.000000 Z" id="down" stroke="none" stroke-width="1.000000" stroke-linecap="butt" fill="#1F0DD9" fill-opacity="1.000000"/></g></svg>